PathFileType	4	(X/Y/Z)	Patient4_TMGait_0pt4_01_left_22.trc.trc
DataRate	CameraRate	NumFrames	NumMarkers	Units	OrigDataRate	OrigDataStartFrame	OrigNumFrames
80.000000000000	80.000000000000	5	33	mm	80.000000000000	71	       141
Frame#	Time	Sacral			L.Shoulder			Chest			R.Shoulder			Neck			R.ASIS			L.ASIS			R.Thigh.Superior			R.Thigh.Lateral			R.Thigh.Inferior			R.Patella			L.Thigh.Superior			L.Thigh.Lateral			L.Thigh.Inferior			L.Patella			L.Shank.Superior			L.Shank.Lateral			L.Shank.Inferior			R.Shank.Superior			R.Shank.Lateral			R.Shank.Inferior			R.Heel			R.Midfoot.Superior			R.Midfoot.Lateral			R.Toe			L.Heel			L.Midfoot.Lateral			L.Midfoot.Superior			L.Toe			L.Elbow			L.Wrist			R.Elbow			R.Wrist			
		X1	Y1	Z1	X2	Y2	Z2	X3	Y3	Z3	X4	Y4	Z4	X5	Y5	Z5	X6	Y6	Z6	X7	Y7	Z7	X8	Y8	Z8	X9	Y9	Z9	X10	Y10	Z10	X11	Y11	Z11	X12	Y12	Z12	X13	Y13	Z13	X14	Y14	Z14	X15	Y15	Z15	X16	Y16	Z16	X17	Y17	Z17	X18	Y18	Z18	X19	Y19	Z19	X20	Y20	Z20	X21	Y21	Z21	X22	Y22	Z22	X23	Y23	Z23	X24	Y24	Z24	X25	Y25	Z25	X26	Y26	Z26	X27	Y27	Z27	X28	Y28	Z28	X29	Y29	Z29	X30	Y30	Z30	X31	Y31	Z31	X32	Y32	Z32	X33	Y33	Z33	

71	27.285000000000	653.484083327290	1009.677918178266	398.082187894022	856.427238023665	1435.017300584901	226.499517928403	940.914560098112	1367.813491774854	398.616431802261	839.824984550310	1446.901898395585	560.745485034124	833.024354794267	1499.069029259917	379.086948017481	869.787125833560	954.975062016666	540.379955637454	883.259307125443	962.341925528217	264.492210611163	936.505076568496	767.309844615207	520.333261068833	879.429802288506	649.893589087426	590.316343209236	966.277772539958	606.219080331225	513.351093039129	992.462173224990	523.382296616074	531.017759800902	895.196728646548	735.922456740971	298.831754172186	789.570679912918	635.008222982381	229.225377652959	853.633300481476	546.051240770999	296.392901957993	840.933509129445	479.973686239431	305.496692378927	811.119888749571	411.380215445140	296.471327617562	713.686432241739	303.918721220505	245.583479960037	754.645553547355	189.468828804577	317.635002369614	972.231098053028	433.921537181016	541.870678782092	911.239055645690	323.395259866238	603.899896721400	976.987250741975	233.678977990469	554.990480886070	876.007305290954	49.294938994538	523.529318304025	1037.885267483200	121.253812252208	573.146140955098	953.982117284839	49.598578394330	604.096299144194	1157.962167763596	82.211903028867	611.087075295142	618.580631834432	38.780868557052	363.674511203184	688.577548533973	34.892960534536	279.663762594244	774.100321760740	94.759498636102	303.311466350439	900.853426728541	40.391007984968	268.809289635668	851.033785784936	1096.763505594028	86.079309170205	1055.068057544376	974.784856016712	183.508570824374	697.965258916082	1130.451638402113	665.682870672804	660.649204240236	872.802291311563	678.582001820303	
72	27.297500000000	654.440296348432	1008.509063816528	399.572226282146	855.263264226086	1434.415341983718	227.911773917859	940.245908597002	1367.452907487970	399.899441190923	839.010814016183	1446.205860525834	562.153020650316	832.102780989137	1498.358110503230	380.508706594807	870.873932570922	953.873423321302	541.937698574017	884.201207508086	961.732059464133	265.911787236225	935.035665398806	763.633555572110	522.489011338213	874.942393301037	646.899844577498	590.929116136317	961.420703850956	602.538895985239	513.892196904839	985.656627135204	520.461354542302	530.262202838780	895.144310539248	734.916584536666	299.783797467200	788.671445254778	634.612747755679	230.087344072258	852.142859532224	545.180984221934	297.011106171345	838.957713654523	479.032443662730	306.046446362637	808.650863056873	410.598593923374	296.934738944911	710.240682042745	303.957130343388	245.898450424385	750.465883398296	189.100726860818	317.769044581612	966.956147116410	431.078705070047	541.694179481694	907.137971195130	319.732377430219	603.274364118840	974.288803637758	230.929982287244	554.397849066552	875.690078744054	46.025691167249	522.050038454227	1036.935086480858	118.430762794792	572.355644709108	953.199036932096	46.727600968185	603.048741081351	1157.007594825202	79.902618268596	610.939256214494	613.566728104254	38.799903280218	363.641525575013	683.539774828678	34.887812443468	279.635392108056	769.099615112518	94.729539759490	303.300824830821	895.791015103675	40.339570660934	268.780794822315	853.479783853035	1096.784195060303	86.451560465038	1059.317828339785	976.857204212894	182.447014795136	701.301661467747	1127.862684695140	667.914365769802	668.607883301587	869.598237984111	681.070848821528	
73	27.310000000000	655.564450779142	1007.218799694521	401.264717239640	853.876398124801	1433.847416850355	229.539267902184	939.515694310960	1367.145732954559	401.350873399048	838.142643111005	1445.410735991610	563.810048088606	831.035343418620	1497.615146779081	382.211573180332	872.232031894473	952.728952165566	543.527585429248	885.254708203512	961.116162609816	267.417186198585	934.236573645528	760.251247383779	524.516104490723	871.335058016644	644.095276727526	591.405640105359	957.569161990219	599.213783491808	514.374373920206	979.597258012892	517.500381128800	529.508104987450	895.243251066146	733.854163104629	300.730511076862	787.875113266429	634.184831292047	231.028773492371	850.779174653042	544.270797780053	297.682232597831	837.109735839674	478.003447395585	306.653323648371	806.252739861769	409.760320205089	297.451313323387	706.798607610191	303.999907483899	246.260671314455	746.277775562275	188.702461132812	317.918698243172	961.913499712540	428.158973525933	541.450710331224	902.503598297880	316.479595398409	602.596557645048	970.284298508802	228.158671590530	553.695968203820	872.664251500507	43.740393773021	520.464838256483	1033.741455950307	115.345685193980	571.485092425642	949.677479242062	44.252957971789	601.937104968452	1153.523855926976	76.402873522851	610.691832543589	608.539193851590	38.776054758519	363.610988409243	678.493008097365	34.863421743903	279.611852653162	764.076525230867	94.704051290250	303.295460617527	890.718705900543	40.294548589542	268.747607380114	855.557336481453	1096.824898192656	87.037090040104	1063.153163724236	978.442348504633	181.100551584590	705.225594394730	1124.920392756117	670.416224826777	677.990132055847	866.026979376480	683.720330079381	
74	27.322500000000	656.829002413457	1005.830883998554	403.143321837694	852.318525707363	1433.325215504332	231.385205057174	938.746542747760	1366.893003966683	402.979341731917	837.234850329339	1444.527814281472	565.711410120567	829.863307180167	1496.857852726096	384.192013871379	873.824469175041	951.586822861472	545.149232683481	886.392123018384	960.498726619410	269.012441641495	934.127356762021	757.225796803714	526.379997519399	868.664356208358	641.539601009358	591.789665790004	954.761809267063	596.282528068378	514.835282609974	974.400412005854	514.581297448748	528.809092713243	895.494901634412	732.753383240673	301.681861618602	787.202325687496	633.717365615293	232.068256038628	849.593346919521	543.323051228026	298.424496179885	835.464638797726	476.869374417654	307.321528791818	803.967956404380	408.856543603796	298.034487413274	703.383584664971	304.058360425732	246.691776063917	742.086375507600	188.271810981917	318.089410488553	957.276651392579	425.242822717146	541.168124570924	897.652615191372	313.634685365514	601.965937616010	965.351140034441	225.396865579830	552.936916634420	867.454795461434	42.256099455167	518.917864038507	1028.763006473001	112.131563436541	570.584534197179	944.003752661446	42.129697468074	600.858220845177	1148.085762538830	72.056403406251	610.333333640725	603.494117891834	38.715959560086	363.581985215620	673.438818641713	34.820546693098	279.596926628367	759.034911902182	94.684222122301	303.297312356866	885.641935224357	40.250543283567	268.707661254987	857.234181251417	1096.876999634627	87.849174594648	1066.529348792075	979.533617086331	179.495639991131	709.702282827143	1121.687044640491	673.159424907560	688.723066680624	862.199075765827	686.497693095655	
75	27.335000000000	658.197755540795	1004.380142350788	405.192098857903	850.651485501265	1432.865282541582	233.447470587497	937.965218933774	1366.697364794677	404.787597600528	836.311159480944	1443.578431428235	567.845003711056	828.637405678018	1496.111956758180	386.437721810693	875.603872836787	950.501585098381	546.805471611394	887.576044273781	959.892090613200	270.699143813782	934.674398398715	754.604630026089	528.055520143528	866.938996226215	639.291865388045	592.144385191848	952.961749120910	593.767639325107	515.306303213642	970.138754260728	511.799630969182	528.218764766636	895.908625204221	731.645293488334	302.652516128377	786.690384953987	633.203788265563	233.229056189330	848.665255896874	542.344725816065	299.256886855717	834.131550019864	475.613628805679	308.052414087673	801.865694215472	407.879837290548	298.696746306500	700.040969536443	304.152758473845	247.217649595950	737.910796966089	187.813407496834	318.286916359641	953.196263398890	422.429612292887	540.887721166873	892.911915799248	311.201007072413	601.478543460457	959.917016968790	222.714350181348	552.182426332863	860.715150955983	41.389082754921	517.536367254092	1022.545460191857	108.969675171341	569.711357222561	936.873377987817	40.340495128497	599.899462223798	1141.346414416762	67.304572790112	609.885929158311	598.429566305517	38.645191812138	363.552395077541	668.381657419728	34.767857228334	279.594401275967	753.987802531361	94.673348194682	303.305367401486	880.569468474487	40.199611137693	268.658237712362	858.484927254487	1096.934575192039	88.901686540076	1069.398365049223	980.120593148688	177.655964308354	714.709335361045	1118.232746695755	676.107532409792	700.728780848174	858.236463852833	689.363134837056	
